<?xml version="1.0" encoding="UTF-8" standalone="no"?>
<!-- Creator: CorelDRAW X7 -->

<svg
   xml:space="preserve"
   width="1024"
   height="1024"
   version="1.1"
   style="clip-rule:evenodd;fill-rule:evenodd;image-rendering:optimizeQuality;shape-rendering:geometricPrecision;text-rendering:geometricPrecision"
   viewBox="0 0 10667.028 10666.758"
   id="svg8"
   sodipodi:docname="icon.svg"
   inkscape:version="1.3.2 (091e20ef0f, 2023-11-25)"
   xmlns:inkscape="http://www.inkscape.org/namespaces/inkscape"
   xmlns:sodipodi="http://sodipodi.sourceforge.net/DTD/sodipodi-0.dtd"
   xmlns="http://www.w3.org/2000/svg"
   xmlns:svg="http://www.w3.org/2000/svg"><sodipodi:namedview
   id="namedview8"
   pagecolor="#ffffff"
   bordercolor="#666666"
   borderopacity="1.0"
   inkscape:showpageshadow="2"
   inkscape:pageopacity="0.0"
   inkscape:pagecheckerboard="0"
   inkscape:deskcolor="#d1d1d1"
   inkscape:document-units="in"
   showgrid="false"
   inkscape:zoom="0.42556181"
   inkscape:cx="387.72276"
   inkscape:cy="525.1881"
   inkscape:window-width="1920"
   inkscape:window-height="1011"
   inkscape:window-x="0"
   inkscape:window-y="0"
   inkscape:window-maximized="1"
   inkscape:current-layer="Layer_x0020_1" />
 <defs
   id="defs1">
  <style
   type="text/css"
   id="style1">
   <![CDATA[
    .str1 {stroke:#ED3237;stroke-width:333.331}
    .str0 {stroke:#ED3237;stroke-width:138.886}
    .fil0 {fill:none}
   ]]>
  </style>
 </defs>
 <g
   id="Layer_x0020_1"
   inkscape:label="Layer 1"
   inkscape:groupmode="layer">
  <metadata
   id="CorelCorpID_0Corel-Layer" />
  <line
   class="fil0 str0"
   x1="3868.0483"
   y1="3223.033"
   x2="3868.0483"
   y2="7287.8892"
   id="line1" />
  <line
   class="fil0 str0"
   x1="4268.8643"
   y1="3223.033"
   x2="4268.8643"
   y2="7287.8892"
   id="line2" />
  <line
   class="fil0 str0"
   x1="4667.0435"
   y1="3223.033"
   x2="4667.0435"
   y2="7287.8892"
   id="line3" />
  <line
   class="fil0 str0"
   x1="3574.0286"
   y1="2929.0129"
   x2="4963.7002"
   y2="2929.0129"
   id="line4" />
  <line
   class="fil0 str0"
   x1="3141.5688"
   y1="2546.6555"
   x2="5397.478"
   y2="2546.6555"
   id="line5" />
  <line
   class="fil0 str0"
   x1="3574.0286"
   y1="7604.3228"
   x2="4963.7002"
   y2="7604.3228"
   id="line6" />
  <line
   class="fil0 str1"
   x1="3156.0723"
   y1="8140.9419"
   x2="7240.7051"
   y2="8140.9419"
   id="line7" />
  <path
   class="fil0 str1"
   d="m 7731.1778,8777.7646 c -715.9316,528.709 -1580.8507,813.499 -2469.5024,813.499 -2295.4637,0 -4157.1493,-1861.6856 -4157.1493,-4157.1493 0,-2295.4637 1861.6856,-4157.1494 4157.1493,-4157.1494 928.2059,0 1830.0423,311.1599 2561.7956,883.3778"
   id="path7" />
  <path
   class="fil0 str0"
   d="m 1364.2655,8212.1396 c 899.1995,1259.143 2352.1581,2006.7184 3898.7284,2006.7184 2646.1779,0 4791.3351,-2145.1582 4791.3351,-4791.3361 0,-2646.1779 -2145.1572,-4791.33547 -4791.3351,-4791.33547 -1587.443,0 -3072.045,785.81067 -3963.3336,2100.32947"
   id="path8" />
 </g>
</svg>
